<svg xmlns="http://www.w3.org/2000/svg" viewBox="0 0 51.72 78.37"><defs><style>.cls-1{fill:none;stroke:#df3826;stroke-miterlimit:10;stroke-width:3.25px;}.cls-2{fill:#fff;}.cls-3,.cls-6{font-size:9.51px;fill:#fbaa31;font-family:DINCondensed-Bold, DIN Condensed;font-weight:700;}.cls-3{letter-spacing:-0.03em;}.cls-4{letter-spacing:-0.05em;}.cls-5{letter-spacing:0em;}.cls-7{letter-spacing:-0.05em;}</style></defs><title>WaterResistant</title><g id="Layer_2" data-name="Layer 2"><g id="Layer_2-2" data-name="Layer 2"><path class="cls-1" d="M10.56,1.62s-8.93,0-8.93,8.93V41.17s0,8.93,8.93,8.93H41.17s8.93,0,8.93-8.93V10.56s0-8.93-8.93-8.93Z"/><path class="cls-2" d="M19.35,25.34c-.81,6,3.24,8.93,8.21,8.06a12,12,0,0,1-8.21-8.06m6.57-15c1.42,4.12,4.41,7.58,6.56,11.47a17.67,17.67,0,0,1,.9,1.89c1.46,3.6.54,6.8-2.18,9.49C27.78,36.61,21.75,35.65,19,31.4c-1.84-2.8-1.66-5.7-.37-8.62a20.13,20.13,0,0,1,1.15-2.26c2.05-3.39,4.13-6.77,6.19-10.15"/><path class="cls-2" d="M19.86,33.83c-1.56.37-2.87.64-4.14,1a7.69,7.69,0,0,0-2,1c-.94.63-1,1.5,0,2a15.44,15.44,0,0,0,4,1.44,40.69,40.69,0,0,0,18-.41,8.37,8.37,0,0,0,2.23-1c1.05-.65,1.11-1.59,0-2.1a42.44,42.44,0,0,0-4.79-1.61,3.08,3.08,0,0,1-1-.41c.31-.14.66-.44.93-.39,2.29.47,4.58,1,6.83,1.56A5.54,5.54,0,0,1,41.76,36a1.24,1.24,0,0,1,0,2.16,7.18,7.18,0,0,1-2.53,1.33A69.58,69.58,0,0,1,31.09,41a49.34,49.34,0,0,1-13.44-.33,50.12,50.12,0,0,1-6.5-1.7c-.87-.27-1.8-.8-1.82-1.85s1-1.54,1.83-2a24.59,24.59,0,0,1,7.59-1.85c.29,0,.62.26,1.11.49"/><path class="cls-2" d="M21.36,35.12l-1,1.1a4.66,4.66,0,0,0,1.24.79,17.36,17.36,0,0,0,8.51,0l.08,0,1.13-.79-.78-.9a1.42,1.42,0,0,1,1.86-.45,17.62,17.62,0,0,1,1.93.76c.93.51,1,1.28,0,1.72a13.51,13.51,0,0,1-3.27,1,29.15,29.15,0,0,1-11.64-.24,8.49,8.49,0,0,1-2.11-.8c-.9-.49-.93-1.22,0-1.67a12.93,12.93,0,0,1,2.91-1c.35-.08.8.27,1.18.42"/><line class="cls-1" x1="4.43" y1="3.13" x2="47.3" y2="48.6"/><text class="cls-3" transform="translate(16.15 64.58)">W<tspan class="cls-4" x="5.36" y="0">A</tspan><tspan class="cls-5" x="8.71" y="0">TER</tspan></text><text class="cls-6" transform="translate(10.31 75.99)">RESIS<tspan class="cls-7" x="17.23" y="0">T</tspan><tspan x="19.87" y="0">ANT</tspan></text></g></g></svg>