<svg xmlns="http://www.w3.org/2000/svg" viewBox="0 0 51.72 77.63"><defs><style>.cls-1{fill:none;stroke:#df3826;stroke-miterlimit:10;stroke-width:3.25px;}.cls-2{fill:#fff;}.cls-3{font-size:9.51px;fill:#fbaa31;font-family:DINCondensed-Bold, DIN Condensed;font-weight:700;}.cls-4{letter-spacing:-0.01em;}.cls-5{letter-spacing:-0.05em;}</style></defs><title>MoldResistant</title><g id="Layer_2" data-name="Layer 2"><g id="Layer_2-2" data-name="Layer 2"><path class="cls-1" d="M10.56,1.62s-8.93,0-8.93,8.93V41.17s0,8.93,8.93,8.93H41.17s8.93,0,8.93-8.93V10.56s0-8.93-8.93-8.93Z"/><path class="cls-2" d="M30.18,17.7c-.57-.44-.91-.91-1.18-.87s-.64.52-1,.81c.27.3.53.82.83.84s.71-.39,1.32-.77m-9,12.75a1.38,1.38,0,0,0,1.25,1.37,1.35,1.35,0,0,0,1.33-1.29,1.29,1.29,0,0,0-1.24-1.36,1.33,1.33,0,0,0-1.33,1.28m3-9.9A1.21,1.21,0,0,0,23,19.2a1.18,1.18,0,0,0-1.28,1.28,1.26,1.26,0,1,0,2.51.09M33.85,23a1.82,1.82,0,0,0-1.91-1.83,1.76,1.76,0,0,0-1.74,1.87A1.87,1.87,0,0,0,32,24.95,1.92,1.92,0,0,0,33.85,23m-6.41,2a1.8,1.8,0,0,0-1.73-1.9,1.88,1.88,0,0,0-1.94,1.83,2,2,0,0,0,1.87,1.94A1.88,1.88,0,0,0,27.44,25m7.71,5.55A4.14,4.14,0,1,0,31,34.75a4.24,4.24,0,0,0,4.18-4.21M34.45,16.6c.55.62,1.16,1.23,1.68,1.91s.9,1.38,1.3,2l2.78-1.15c.42-1.27,1.25-1.82,2.3-1.39a1.69,1.69,0,0,1,.82,2.26c-.5,1-1.45,1.15-2.59.5L38,21.58l.78,4.08c.65,0,1.31.09,2,.09a1.36,1.36,0,0,0,.68-.28C42,25,42.69,25,43,25.77a1.45,1.45,0,0,1,0,1.07c-.27.77-.91.78-1.57.46a3,3,0,0,0-1.08-.23c-.57,0-1.13,0-1.67,0L37.57,31.5c.4.25.83.57,1.31.81a1.49,1.49,0,0,0,.84.2c1-.15,1.74.24,1.9,1.09a1.43,1.43,0,0,1-1,1.71c-.77.3-1.47-.19-1.83-1.16a1.33,1.33,0,0,0-.48-.55c-.46-.33-1-.63-1.5-1l-1.26,1.7,2.12,2a1.65,1.65,0,0,1,2.19.93,1.6,1.6,0,0,1-.41,2,1.5,1.5,0,0,1-1.88.26,1.75,1.75,0,0,1-.82-2.2l-2.17-2-1.71,1.3c.31.77.58,1.46.88,2.13a1.09,1.09,0,0,0,.44.48c.93.56,1.24,1.28.79,2a1.21,1.21,0,0,1-1.76.47c-.76-.42-.84-1.12-.32-2.09l-1.33-2.21-4.33,1.07-.18,2.67a5.26,5.26,0,0,1,.58.45,1.53,1.53,0,0,1,.07,2.07,1.49,1.49,0,0,1-2,.21,1.45,1.45,0,0,1-.33-2,1.8,1.8,0,0,0,.42-1.74,11,11,0,0,1,0-1.53l-5.59-1.88-1.87,2a5.72,5.72,0,0,1,.18.75,1.71,1.71,0,0,1-1.45,1.93A1.74,1.74,0,0,1,15.22,40c-.2-.94.34-2,1.23-2.05s1.21-.51,1.61-1.12a11.54,11.54,0,0,1,1-1.2l-2.32-2.54c-.63.59-1.74.53-2,1.83a1.2,1.2,0,0,1-1.68.74,1.44,1.44,0,0,1-1-1.68c.11-.78.65-1.45,1.34-1.26,1.14.32,1.72-.46,2.39-.86l-1.45-6.16H12.57c-.52,1-1.28,1.78-2.55,1.44a2,2,0,0,1-1.53-2,2,2,0,0,1,1.28-2c.95-.42,1.81,0,2.72,1.08h2.26l.59-2.35c-1-.29-1.65-1.38-2.93-1-.23.08-.94-.55-1-.92A1.66,1.66,0,0,1,12,18.68c.31-.21,1.25-.08,1.34.14.5,1.18,1.69,1.08,2.54,1.7l1.34-2.12-1.95-1.76a8.82,8.82,0,0,1-1,.28A2.06,2.06,0,0,1,12,15.27a2.16,2.16,0,0,1,1.74-2.52c1-.17,2.26.61,2.24,1.62a2.08,2.08,0,0,0,1.29,2.05,5.52,5.52,0,0,1,.91.82.7.7,0,0,0,.19-.08l1.52-1.29c-.66-.78-.74-2-2-2.31-.29-.08-.54-1.06-.48-1.58A1.09,1.09,0,0,1,18.86,11c.49.17,1.24.83,1.18,1.12-.26,1.24.62,1.95,1,2.83l4.83-1.38V11c-1.5-1-1.91-1.89-1.46-3a2.05,2.05,0,0,1,2.8-1.09,2,2,0,0,1,.81,3,2.89,2.89,0,0,0-.75,2.59,8.25,8.25,0,0,1-.07,1.29c.58.09,1.11.17,1.63.27s1,.22,1.49.34l1.14-2.41c-.74-1.32-.8-2.12-.12-2.85a1.74,1.74,0,0,1,2.14-.45,1.79,1.79,0,0,1,1.07,2,1.92,1.92,0,0,1-1.9,1.67l-.91,2.56,1.36.77c.53-.51,1-1,1.49-1.46a1.05,1.05,0,0,0,.22-.66c0-.69.28-1.24,1-1.19a1.53,1.53,0,0,1,1.12.77c.25.63-.15,1.08-.8,1.31a1.39,1.39,0,0,0-.61.54c-.36.53-.67,1.1-1,1.66"/><line class="cls-1" x1="4.43" y1="3.81" x2="47.3" y2="49.28"/><text class="cls-3" transform="translate(7.22 63.84)">R<tspan class="cls-4" x="4.05" y="0">O</tspan><tspan x="8" y="0">T + MOLD</tspan></text><text class="cls-3" transform="translate(10.31 75.25)">RESIS<tspan class="cls-5" x="17.23" y="0">T</tspan><tspan x="19.86" y="0">ANT</tspan></text></g></g></svg>