<svg xmlns="http://www.w3.org/2000/svg" viewBox="0 0 54.33 78.37"><defs><style>.cls-1{fill:none;stroke:#df3826;stroke-miterlimit:10;stroke-width:3.25px;}.cls-2{font-size:9.51px;fill:#fbaa31;font-family:DINCondensed-Bold, DIN Condensed;font-weight:700;}.cls-3{letter-spacing:-0.01em;}.cls-4{letter-spacing:-0.05em;}.cls-5{letter-spacing:-0.01em;}.cls-6{letter-spacing:-0.01em;}.cls-7{fill:#fff;}</style></defs><title>Easy2Install</title><g id="Layer_2" data-name="Layer 2"><g id="Layer_2-2" data-name="Layer 2"><path class="cls-1" d="M12.67,1.62s-8.93,0-8.93,8.93V41.17s0,8.93,8.93,8.93H43.28s8.93,0,8.93-8.93V10.56s0-8.93-8.93-8.93Z"/><text class="cls-2" transform="translate(2.6 64.58)">EASY <tspan class="cls-3" x="16.71" y="0">T</tspan><tspan x="19.76" y="0">O INS</tspan><tspan class="cls-4" x="35.6" y="0">T</tspan><tspan x="38.24" y="0">ALL </tspan></text><text class="cls-2" transform="translate(0 75.99)">WITH <tspan class="cls-5" x="16.55" y="0">B</tspan><tspan x="20.49" y="0">ASIC </tspan><tspan class="cls-6" x="35.8" y="0">T</tspan><tspan x="38.85" y="0">OOLS</tspan></text><path class="cls-7" d="M16.09,43.14a5.58,5.58,0,0,1,.4-1.46c3.46-5.78,7-11.51,10.42-17.32,1.43-2.43,2.6-5,3.91-7.52.61-1.16.8-1.19,1.94-.54l1.77,1c1.14.66,1.2.84.51,2s-1.36,1.94-1.95,3q-4.79,8.33-9.53,16.69c-1,1.77-1.95,3.58-3,5.34a4.59,4.59,0,0,1-1,.9l-3.54-2"/><path class="cls-7" d="M39.36,11c2.79,2.63,3.44,6.1,4.19,9.52l-.32.24A8.29,8.29,0,0,1,42,19.29c-.59-1.13-1-2.35-1.58-3.48-.67-1.29-1.35-1.4-2.46-.48-.48.4-.91.85-1.39,1.29-.26-.13-.5-.25-.73-.38l-3.42-2a1.82,1.82,0,0,1,0-.35c.64-2,.05-3.58-2.65-3.59-1.22,0-1.47-.57-.89-1.58.34-.6.71-1.19,1-1.8s.69-.54,1.14-.19a4.24,4.24,0,0,1,.78.65C33,8.82,34.57,9,36.18,9.16L39.36,11"/></g></g></svg>