<svg xmlns="http://www.w3.org/2000/svg" viewBox="0 0 51.72 78.37"><defs><style>.cls-1{fill:none;stroke:#df3826;stroke-miterlimit:10;stroke-width:3.25px;}.cls-2{fill:#fff;}.cls-3{font-size:9.51px;fill:#fbaa31;font-family:DINCondensed-Bold, DIN Condensed;font-weight:700;}.cls-4{letter-spacing:-0.01em;}.cls-5{letter-spacing:-0.03em;}.cls-6{letter-spacing:-0.05em;}</style></defs><title>SoapWaterClean</title><g id="Layer_2" data-name="Layer 2"><g id="Layer_2-2" data-name="Layer 2"><path class="cls-1" d="M10.56,1.62s-8.93,0-8.93,8.93V41.17s0,8.93,8.93,8.93H41.17s8.93,0,8.93-8.93V10.56s0-8.93-8.93-8.93Z"/><path class="cls-2" d="M18.34,29.67a1.42,1.42,0,0,1,1.4,1.46,1.44,1.44,0,0,1-1.42,1.43,1.44,1.44,0,0,1,0-2.89m-4.94,0,.4,2.81,0-.07.22,1.54.08.58c.06.42.13.86.18,1.3a1,1,0,0,0,1.08,1h.2a5.72,5.72,0,0,0,1.75-.59,26.48,26.48,0,0,0,3.91-2.44A93,93,0,0,0,29,27.43c1-.9,2-1.87,3.18-3s2.28-2.22,3.39-3.31c.52-.52,1-1.05,1.56-1.57l.49-.5.21-.22.23-.24a1,1,0,0,1,.7-.31l.16,0v0a2.55,2.55,0,0,0-.49-.1H26.53v.29q0,3.17,0,6.34a3.9,3.9,0,0,1-.05.81A1.75,1.75,0,0,1,24.57,27,1.79,1.79,0,0,1,23,25.23c0-.56,0-1.13,0-1.69,0,0,0-.09,0-.17a1.75,1.75,0,0,1-1.46.8,1.8,1.8,0,0,1-1.48-.81v.3c0,.82,0,1.63,0,2.45a1.76,1.76,0,0,1-.65,1.42,1.62,1.62,0,0,1-1.83.22,1.67,1.67,0,0,1-1-1.58c0-2.56,0-5.12,0-7.69v-.27H12.93a1,1,0,0,0-1,1.14c.21,1.5.42,3,.63,4.5q.41,2.91.81,5.81"/><path class="cls-2" d="M37.73,21.57l-.7.71c-.68.69-1.38,1.41-2.09,2.1-1.13,1.1-2.36,2.27-3.86,3.68-1.77,1.66-3.62,3.27-5.48,4.79a48.31,48.31,0,0,1-5,3.65,16.18,16.18,0,0,1-3.71,1.8,5.34,5.34,0,0,1-1.56.28,3.29,3.29,0,0,1-.59-.05l-.09,0a1,1,0,0,0,0,.17c.13.91.25,1.82.38,2.73A1.91,1.91,0,0,0,16.16,43a7.54,7.54,0,0,0,1.56.47,44.35,44.35,0,0,0,8,.73c.4,0,.81,0,1.21,0,.65,0,1.3,0,1.94-.1,1-.09,2-.18,3-.33s1.76-.28,2.63-.5a2.13,2.13,0,0,0,1.78-1.89c.09-.69.19-1.38.29-2.07l1-7.2.6-4.32.58-4.22L39.27,20l-1.53,1.58"/><path class="cls-2" d="M36,17.21H15a3,3,0,0,1,3.93-2.57,10.08,10.08,0,0,1,.87-1.14,4,4,0,0,1,4.38-1,.37.37,0,0,0,.38,0,4,4,0,0,1,5.19.52.8.8,0,0,1,.14.15,1.13,1.13,0,0,0,.88.53,2.42,2.42,0,0,1,.6.25.29.29,0,0,0,.29,0,3,3,0,0,1,3.91,1.15A3.14,3.14,0,0,1,36,17.21"/><path class="cls-2" d="M19.14,9.43a1.73,1.73,0,1,1-3.46,0,1.73,1.73,0,1,1,3.46,0"/><text class="cls-3" transform="translate(7.29 64.58)">JUST S<tspan class="cls-4" x="19.86" y="0">O</tspan><tspan x="23.81" y="0">AP + </tspan></text><text class="cls-3" transform="translate(2.27 75.99)"><tspan class="cls-5">W</tspan><tspan class="cls-6" x="5.36" y="0">A</tspan><tspan x="8.71" y="0">TER </tspan><tspan class="cls-4" x="21.2" y="0">T</tspan><tspan x="24.26" y="0">O CLEAN</tspan></text></g></g></svg>