<svg xmlns="http://www.w3.org/2000/svg" viewBox="0 0 51.72 77.63"><defs><style>.cls-1{fill:none;stroke:#df3826;stroke-miterlimit:10;stroke-width:3.25px;}.cls-2{fill:#fff;}.cls-3{font-size:9.51px;fill:#fbaa31;font-family:DINCondensed-Bold, DIN Condensed;font-weight:700;}.cls-4{letter-spacing:-0.05em;}.cls-5{letter-spacing:0em;}</style></defs><title>BugResistant</title><g id="Layer_2" data-name="Layer 2"><g id="Layer_2-2" data-name="Layer 2"><path class="cls-1" d="M10.56,1.62s-8.93,0-8.93,8.93V41.17s0,8.93,8.93,8.93H41.17s8.93,0,8.93-8.93V10.56s0-8.93-8.93-8.93Z"/><path class="cls-2" d="M11.27,22.54,12,21.3c2.26.16,4.53.25,6.78.51A5.74,5.74,0,0,0,22.64,21c-.76-1.5-1.54-3-2.31-4.58-.4-.8-.28-1.37.33-1.64s1.08,0,1.47.75l.33.65,2.17,4.27a4.57,4.57,0,0,1,2.73-3.82,1.81,1.81,0,0,0,1.18-2,6.52,6.52,0,0,0-.21-1.82,6.92,6.92,0,0,0-1-1.44c-.27-.4-.72-.78-.77-1.2-.07-.61.54-.82,1.06-1l1.42.82a6.81,6.81,0,0,1,1.47,5.72c.85.4,1.63.71,2.35,1.13a.73.73,0,0,0,.92,0A6.15,6.15,0,0,1,39,15.73l1.13.65a3.48,3.48,0,0,1-.23,1.37c-.33.49-.89.22-1.4.07a2.62,2.62,0,0,0-1.41-.14,26.51,26.51,0,0,0-2.63,1.08c.86,2.62.58,4.79-1.71,6.54L38.66,25a1,1,0,0,1,1.16.88.92.92,0,0,1-1,1.11c-1.1.09-2.21.13-3.32.19l-2.07.13A5.36,5.36,0,0,0,34.72,31c1.21,1.63,2.29,3.35,3.44,5,.48.71.46,1.25-.08,1.6s-1.12.18-1.6-.54l-2.63-3.9c-.15-.23-.33-.44-.49-.66-.41,1-.82,1.91-1.16,2.85a3.15,3.15,0,0,0-.24,1.35c.19,1.84.46,3.67.68,5.5.11.94-.56,1.62-1.29,1.25a1.74,1.74,0,0,1-.78-1.08c-.26-1.29-.41-2.61-.61-4l-.64.57a10.63,10.63,0,0,1-6.88,2.71.88.88,0,0,1-1-.76A5.08,5.08,0,0,1,21.83,37c.78-1.36,1.57-2.72,2.35-4.07q1.77-3.07,3.54-6.14c.44-.76.3-1.29-.37-1.61s-1,.06-1.35.59l-5.7,9.87a5.35,5.35,0,0,1-3.52,2.68.8.8,0,0,1-1.05-.42,10.49,10.49,0,0,1-1.15-7.3c0-.27.08-.55.13-.84a1.24,1.24,0,0,0-.24,0L11,31.12c-.79.31-1.4.13-1.66-.47s0-1.11.82-1.46l5-2.11c.2-.08.45-.13.57-.28.78-1,1.52-2,2.32-3.08-1.8-.13-3.55-.28-5.3-.36a1.7,1.7,0,0,1-1.55-.81"/><line class="cls-1" x1="4.87" y1="3.81" x2="47.74" y2="49.28"/><text class="cls-3" transform="translate(3.76 63.84)">BUG + INSECT</text><text class="cls-3" transform="translate(9.18 75.25)">RESIS<tspan class="cls-4" x="17.23" y="0">T</tspan><tspan class="cls-5" x="19.87" y="0">ANT</tspan></text></g></g></svg>