<svg xmlns="http://www.w3.org/2000/svg" viewBox="0 0 92.06 136.95"><defs><style>.cls-1{font-size:7px;font-family:PrestigeSW-Bold, Prestige SW;letter-spacing:0.05em;}.cls-1,.cls-2{fill:#fff;font-weight:700;}.cls-2{font-size:10px;font-family:DINCondensed-Bold, DIN Condensed;letter-spacing:0.1em;}.cls-3,.cls-4{fill:none;stroke-miterlimit:10;stroke-width:2px;}.cls-3{stroke:#fbaa32;}.cls-4{stroke:#fbaa31;}</style></defs><title>Trim_Graph</title><g id="Layer_2" data-name="Layer 2"><g id="Layer_1-2" data-name="Layer 1"><text class="cls-1" transform="translate(19.75 45.92)">4”<tspan x="0" y="16.75">6”</tspan><tspan x="0" y="33.5">8”</tspan><tspan x="-2.27" y="50.25">10”</tspan><tspan x="-2.27" y="67">12”</tspan><tspan x="-2.27" y="83.75">16”</tspan></text><text class="cls-1" transform="translate(53.93 45.92)">3-1/2”<tspan x="0" y="16.75">5-1/2”</tspan><tspan x="0" y="33.5">7-1/4”</tspan><tspan x="0" y="50.25">9-1/4”</tspan><tspan x="-2.27" y="67">11-1/4”</tspan><tspan x="-2.27" y="83.75">15-3/4”</tspan></text><text class="cls-2" transform="translate(15.5 16.67)">NOM<tspan x="-3.77" y="10">WIDTH</tspan></text><text class="cls-2" transform="translate(61.15 16)">NET<tspan x="-5.17" y="10">WIDTH</tspan></text><rect class="cls-3" x="1" y="34.15" width="45.03" height="16.96"/><rect class="cls-3" x="46.03" y="34.15" width="45.03" height="16.96"/><rect class="cls-3" x="1" y="51.11" width="45.03" height="16.96"/><rect class="cls-3" x="46.03" y="51.11" width="45.03" height="16.96"/><rect class="cls-3" x="1" y="68.07" width="45.03" height="16.96"/><rect class="cls-3" x="46.03" y="68.07" width="45.03" height="16.96"/><rect class="cls-3" x="1" y="85.03" width="45.03" height="16.96"/><rect class="cls-3" x="46.03" y="85.03" width="45.03" height="16.96"/><rect class="cls-3" x="1" y="101.99" width="45.03" height="16.96"/><rect class="cls-3" x="46.03" y="101.99" width="45.03" height="16.96"/><line class="cls-3" x1="46.03" y1="135.95" x2="46.03" y2="1"/><rect class="cls-4" x="1" y="1" width="90.06" height="134.95" rx="9" ry="9"/></g></g></svg>